%TF.GenerationSoftware,KiCad,Pcbnew,9.0.8*%
%TF.CreationDate,2026-06-29T10:42:59+03:00*%
%TF.ProjectId,STM32-QSPI-Flash-Board,53544d33-322d-4515-9350-492d466c6173,rev?*%
%TF.SameCoordinates,Original*%
%TF.FileFunction,Copper,L2,Inr*%
%TF.FilePolarity,Positive*%
%FSLAX46Y46*%
G04 Gerber Fmt 4.6, Leading zero omitted, Abs format (unit mm)*
G04 Created by KiCad (PCBNEW 9.0.8) date 2026-06-29 10:42:59*
%MOMM*%
%LPD*%
G01*
G04 APERTURE LIST*
%TA.AperFunction,ComponentPad*%
%ADD10C,2.000000*%
%TD*%
%TA.AperFunction,ViaPad*%
%ADD11C,0.600000*%
%TD*%
G04 APERTURE END LIST*
D10*
%TO.N,GND*%
%TO.C,SW1*%
X123750000Y-106000000D03*
X123750000Y-99500000D03*
%TO.N,Net-(U2-NRST)*%
X128250000Y-106000000D03*
X128250000Y-99500000D03*
%TD*%
D11*
%TO.N,GND*%
X136000000Y-95500000D03*
X143000000Y-111500000D03*
X141500000Y-112000000D03*
X146174265Y-104825735D03*
X144500000Y-107000000D03*
X139500000Y-107000000D03*
X131500000Y-108000000D03*
X135000000Y-106500000D03*
X152000000Y-95000000D03*
X160000000Y-98500000D03*
X131000000Y-105000000D03*
X150750000Y-105250000D03*
X139000000Y-112000000D03*
X151500000Y-103500000D03*
%TO.N,+3.3V*%
X133000000Y-108000000D03*
X139000000Y-110500000D03*
X147000000Y-95500000D03*
X135000000Y-95500000D03*
X149000000Y-113500000D03*
X143000000Y-110500000D03*
X150000000Y-104500000D03*
X154500000Y-104500000D03*
%TD*%
%TA.AperFunction,Conductor*%
%TO.N,GND*%
G36*
X162442539Y-87520185D02*
G01*
X162488294Y-87572989D01*
X162499500Y-87624500D01*
X162499500Y-114375500D01*
X162479815Y-114442539D01*
X162427011Y-114488294D01*
X162375500Y-114499500D01*
X121124500Y-114499500D01*
X121057461Y-114479815D01*
X121011706Y-114427011D01*
X121000500Y-114375500D01*
X121000500Y-113420943D01*
X148399500Y-113420943D01*
X148399500Y-113579056D01*
X148440423Y-113731783D01*
X148440426Y-113731790D01*
X148519475Y-113868709D01*
X148519479Y-113868714D01*
X148519480Y-113868716D01*
X148631284Y-113980520D01*
X148631286Y-113980521D01*
X148631290Y-113980524D01*
X148768209Y-114059573D01*
X148768216Y-114059577D01*
X148920943Y-114100500D01*
X148920945Y-114100500D01*
X149079055Y-114100500D01*
X149079057Y-114100500D01*
X149231784Y-114059577D01*
X149368716Y-113980520D01*
X149480520Y-113868716D01*
X149559577Y-113731784D01*
X149600500Y-113579057D01*
X149600500Y-113420943D01*
X149559577Y-113268216D01*
X149559573Y-113268209D01*
X149480524Y-113131290D01*
X149480518Y-113131282D01*
X149368717Y-113019481D01*
X149368709Y-113019475D01*
X149231790Y-112940426D01*
X149231786Y-112940424D01*
X149231784Y-112940423D01*
X149079057Y-112899500D01*
X148920943Y-112899500D01*
X148768216Y-112940423D01*
X148768209Y-112940426D01*
X148631290Y-113019475D01*
X148631282Y-113019481D01*
X148519481Y-113131282D01*
X148519475Y-113131290D01*
X148440426Y-113268209D01*
X148440423Y-113268216D01*
X148399500Y-113420943D01*
X121000500Y-113420943D01*
X121000500Y-110420943D01*
X138399500Y-110420943D01*
X138399500Y-110579056D01*
X138440423Y-110731783D01*
X138440426Y-110731790D01*
X138519475Y-110868709D01*
X138519479Y-110868714D01*
X138519480Y-110868716D01*
X138631284Y-110980520D01*
X138631286Y-110980521D01*
X138631290Y-110980524D01*
X138768209Y-111059573D01*
X138768216Y-111059577D01*
X138920943Y-111100500D01*
X138920945Y-111100500D01*
X139079055Y-111100500D01*
X139079057Y-111100500D01*
X139231784Y-111059577D01*
X139368716Y-110980520D01*
X139480520Y-110868716D01*
X139559577Y-110731784D01*
X139600500Y-110579057D01*
X139600500Y-110420943D01*
X142399500Y-110420943D01*
X142399500Y-110579056D01*
X142440423Y-110731783D01*
X142440426Y-110731790D01*
X142519475Y-110868709D01*
X142519479Y-110868714D01*
X142519480Y-110868716D01*
X142631284Y-110980520D01*
X142631286Y-110980521D01*
X142631290Y-110980524D01*
X142768209Y-111059573D01*
X142768216Y-111059577D01*
X142920943Y-111100500D01*
X142920945Y-111100500D01*
X143079055Y-111100500D01*
X143079057Y-111100500D01*
X143231784Y-111059577D01*
X143368716Y-110980520D01*
X143480520Y-110868716D01*
X143559577Y-110731784D01*
X143600500Y-110579057D01*
X143600500Y-110420943D01*
X143559577Y-110268216D01*
X143559573Y-110268209D01*
X143480524Y-110131290D01*
X143480518Y-110131282D01*
X143368717Y-110019481D01*
X143368709Y-110019475D01*
X143231790Y-109940426D01*
X143231786Y-109940424D01*
X143231784Y-109940423D01*
X143079057Y-109899500D01*
X142920943Y-109899500D01*
X142768216Y-109940423D01*
X142768209Y-109940426D01*
X142631290Y-110019475D01*
X142631282Y-110019481D01*
X142519481Y-110131282D01*
X142519475Y-110131290D01*
X142440426Y-110268209D01*
X142440423Y-110268216D01*
X142399500Y-110420943D01*
X139600500Y-110420943D01*
X139559577Y-110268216D01*
X139559573Y-110268209D01*
X139480524Y-110131290D01*
X139480518Y-110131282D01*
X139368717Y-110019481D01*
X139368709Y-110019475D01*
X139231790Y-109940426D01*
X139231786Y-109940424D01*
X139231784Y-109940423D01*
X139079057Y-109899500D01*
X138920943Y-109899500D01*
X138768216Y-109940423D01*
X138768209Y-109940426D01*
X138631290Y-110019475D01*
X138631282Y-110019481D01*
X138519481Y-110131282D01*
X138519475Y-110131290D01*
X138440426Y-110268209D01*
X138440423Y-110268216D01*
X138399500Y-110420943D01*
X121000500Y-110420943D01*
X121000500Y-107920943D01*
X132399500Y-107920943D01*
X132399500Y-108079056D01*
X132440423Y-108231783D01*
X132440426Y-108231790D01*
X132519475Y-108368709D01*
X132519479Y-108368714D01*
X132519480Y-108368716D01*
X132631284Y-108480520D01*
X132631286Y-108480521D01*
X132631290Y-108480524D01*
X132768209Y-108559573D01*
X132768216Y-108559577D01*
X132920943Y-108600500D01*
X132920945Y-108600500D01*
X133079055Y-108600500D01*
X133079057Y-108600500D01*
X133231784Y-108559577D01*
X133368716Y-108480520D01*
X133480520Y-108368716D01*
X133559577Y-108231784D01*
X133600500Y-108079057D01*
X133600500Y-107920943D01*
X133559577Y-107768216D01*
X133559573Y-107768209D01*
X133480524Y-107631290D01*
X133480518Y-107631282D01*
X133368717Y-107519481D01*
X133368709Y-107519475D01*
X133231790Y-107440426D01*
X133231786Y-107440424D01*
X133231784Y-107440423D01*
X133079057Y-107399500D01*
X132920943Y-107399500D01*
X132768216Y-107440423D01*
X132768209Y-107440426D01*
X132631290Y-107519475D01*
X132631282Y-107519481D01*
X132519481Y-107631282D01*
X132519475Y-107631290D01*
X132440426Y-107768209D01*
X132440423Y-107768216D01*
X132399500Y-107920943D01*
X121000500Y-107920943D01*
X121000500Y-105881947D01*
X122250000Y-105881947D01*
X122250000Y-106118052D01*
X122286934Y-106351247D01*
X122359897Y-106575802D01*
X122467087Y-106786174D01*
X122527338Y-106869104D01*
X122527340Y-106869105D01*
X123226212Y-106170233D01*
X123237482Y-106212292D01*
X123309890Y-106337708D01*
X123412292Y-106440110D01*
X123537708Y-106512518D01*
X123579765Y-106523787D01*
X122880893Y-107222658D01*
X122963828Y-107282914D01*
X123174197Y-107390102D01*
X123398752Y-107463065D01*
X123398751Y-107463065D01*
X123631948Y-107500000D01*
X123868052Y-107500000D01*
X124101247Y-107463065D01*
X124325802Y-107390102D01*
X124536163Y-107282918D01*
X124536169Y-107282914D01*
X124619104Y-107222658D01*
X124619105Y-107222658D01*
X123920233Y-106523787D01*
X123962292Y-106512518D01*
X124087708Y-106440110D01*
X124190110Y-106337708D01*
X124262518Y-106212292D01*
X124273787Y-106170234D01*
X124972658Y-106869105D01*
X124972658Y-106869104D01*
X125032914Y-106786169D01*
X125032918Y-106786163D01*
X125140102Y-106575802D01*
X125213065Y-106351247D01*
X125250000Y-106118052D01*
X125250000Y-105897648D01*
X126949500Y-105897648D01*
X126949500Y-106102351D01*
X126981522Y-106304534D01*
X127044781Y-106499223D01*
X127137715Y-106681613D01*
X127258028Y-106847213D01*
X127402786Y-106991971D01*
X127557749Y-107104556D01*
X127568390Y-107112287D01*
X127684607Y-107171503D01*
X127750776Y-107205218D01*
X127750778Y-107205218D01*
X127750781Y-107205220D01*
X127804450Y-107222658D01*
X127945465Y-107268477D01*
X128036616Y-107282914D01*
X128147648Y-107300500D01*
X128147649Y-107300500D01*
X128352351Y-107300500D01*
X128352352Y-107300500D01*
X128554534Y-107268477D01*
X128749219Y-107205220D01*
X128931610Y-107112287D01*
X129024590Y-107044732D01*
X129097213Y-106991971D01*
X129097215Y-106991968D01*
X129097219Y-106991966D01*
X129241966Y-106847219D01*
X129241968Y-106847215D01*
X129241971Y-106847213D01*
X129294732Y-106774590D01*
X129362287Y-106681610D01*
X129455220Y-106499219D01*
X129518477Y-106304534D01*
X129550500Y-106102352D01*
X129550500Y-105897648D01*
X129518477Y-105695466D01*
X129502549Y-105646446D01*
X129455218Y-105500776D01*
X129416198Y-105424197D01*
X129362287Y-105318390D01*
X129354556Y-105307749D01*
X129241971Y-105152786D01*
X129097213Y-105008028D01*
X128931613Y-104887715D01*
X128931612Y-104887714D01*
X128931610Y-104887713D01*
X128874653Y-104858691D01*
X128749223Y-104794781D01*
X128554534Y-104731522D01*
X128379995Y-104703878D01*
X128352352Y-104699500D01*
X128147648Y-104699500D01*
X128123329Y-104703351D01*
X127945465Y-104731522D01*
X127750776Y-104794781D01*
X127568386Y-104887715D01*
X127402786Y-105008028D01*
X127258028Y-105152786D01*
X127137715Y-105318386D01*
X127044781Y-105500776D01*
X126981522Y-105695465D01*
X126949500Y-105897648D01*
X125250000Y-105897648D01*
X125250000Y-105881947D01*
X125213065Y-105648752D01*
X125140102Y-105424197D01*
X125032914Y-105213828D01*
X124972658Y-105130894D01*
X124972658Y-105130893D01*
X124273787Y-105829765D01*
X124262518Y-105787708D01*
X124190110Y-105662292D01*
X124087708Y-105559890D01*
X123962292Y-105487482D01*
X123920234Y-105476212D01*
X124619105Y-104777340D01*
X124619104Y-104777338D01*
X124536174Y-104717087D01*
X124325802Y-104609897D01*
X124101247Y-104536934D01*
X124101246Y-104536933D01*
X124090860Y-104535289D01*
X124090859Y-104535289D01*
X123868052Y-104500000D01*
X123631948Y-104500000D01*
X123398752Y-104536934D01*
X123174197Y-104609897D01*
X122963830Y-104717084D01*
X122880894Y-104777340D01*
X123579766Y-105476212D01*
X123537708Y-105487482D01*
X123412292Y-105559890D01*
X123309890Y-105662292D01*
X123237482Y-105787708D01*
X123226212Y-105829766D01*
X122527340Y-105130894D01*
X122467084Y-105213830D01*
X122359897Y-105424197D01*
X122286934Y-105648752D01*
X122250000Y-105881947D01*
X121000500Y-105881947D01*
X121000500Y-104420943D01*
X149399500Y-104420943D01*
X149399500Y-104579056D01*
X149440423Y-104731783D01*
X149440426Y-104731790D01*
X149519475Y-104868709D01*
X149519479Y-104868714D01*
X149519480Y-104868716D01*
X149631284Y-104980520D01*
X149631286Y-104980521D01*
X149631290Y-104980524D01*
X149768209Y-105059573D01*
X149768216Y-105059577D01*
X149920943Y-105100500D01*
X149920945Y-105100500D01*
X150079055Y-105100500D01*
X150079057Y-105100500D01*
X150231784Y-105059577D01*
X150368716Y-104980520D01*
X150480520Y-104868716D01*
X150559577Y-104731784D01*
X150600500Y-104579057D01*
X150600500Y-104420943D01*
X153899500Y-104420943D01*
X153899500Y-104579056D01*
X153940423Y-104731783D01*
X153940426Y-104731790D01*
X154019475Y-104868709D01*
X154019479Y-104868714D01*
X154019480Y-104868716D01*
X154131284Y-104980520D01*
X154131286Y-104980521D01*
X154131290Y-104980524D01*
X154268209Y-105059573D01*
X154268216Y-105059577D01*
X154420943Y-105100500D01*
X154420945Y-105100500D01*
X154579055Y-105100500D01*
X154579057Y-105100500D01*
X154731784Y-105059577D01*
X154868716Y-104980520D01*
X154980520Y-104868716D01*
X155059577Y-104731784D01*
X155100500Y-104579057D01*
X155100500Y-104420943D01*
X155059577Y-104268216D01*
X155059573Y-104268209D01*
X154980524Y-104131290D01*
X154980518Y-104131282D01*
X154868717Y-104019481D01*
X154868709Y-104019475D01*
X154731790Y-103940426D01*
X154731786Y-103940424D01*
X154731784Y-103940423D01*
X154579057Y-103899500D01*
X154420943Y-103899500D01*
X154268216Y-103940423D01*
X154268209Y-103940426D01*
X154131290Y-104019475D01*
X154131282Y-104019481D01*
X154019481Y-104131282D01*
X154019475Y-104131290D01*
X153940426Y-104268209D01*
X153940423Y-104268216D01*
X153899500Y-104420943D01*
X150600500Y-104420943D01*
X150559577Y-104268216D01*
X150559573Y-104268209D01*
X150480524Y-104131290D01*
X150480518Y-104131282D01*
X150368717Y-104019481D01*
X150368709Y-104019475D01*
X150231790Y-103940426D01*
X150231786Y-103940424D01*
X150231784Y-103940423D01*
X150079057Y-103899500D01*
X149920943Y-103899500D01*
X149768216Y-103940423D01*
X149768209Y-103940426D01*
X149631290Y-104019475D01*
X149631282Y-104019481D01*
X149519481Y-104131282D01*
X149519475Y-104131290D01*
X149440426Y-104268209D01*
X149440423Y-104268216D01*
X149399500Y-104420943D01*
X121000500Y-104420943D01*
X121000500Y-99381947D01*
X122250000Y-99381947D01*
X122250000Y-99618052D01*
X122286934Y-99851247D01*
X122359897Y-100075802D01*
X122467087Y-100286174D01*
X122527338Y-100369104D01*
X122527340Y-100369105D01*
X123226212Y-99670233D01*
X123237482Y-99712292D01*
X123309890Y-99837708D01*
X123412292Y-99940110D01*
X123537708Y-100012518D01*
X123579765Y-100023787D01*
X122880893Y-100722658D01*
X122963828Y-100782914D01*
X123174197Y-100890102D01*
X123398752Y-100963065D01*
X123398751Y-100963065D01*
X123631948Y-101000000D01*
X123868052Y-101000000D01*
X124101247Y-100963065D01*
X124325802Y-100890102D01*
X124536163Y-100782918D01*
X124536169Y-100782914D01*
X124619104Y-100722658D01*
X124619105Y-100722658D01*
X123920233Y-100023787D01*
X123962292Y-100012518D01*
X124087708Y-99940110D01*
X124190110Y-99837708D01*
X124262518Y-99712292D01*
X124273787Y-99670234D01*
X124972658Y-100369105D01*
X124972658Y-100369104D01*
X125032914Y-100286169D01*
X125032918Y-100286163D01*
X125140102Y-100075802D01*
X125213065Y-99851247D01*
X125250000Y-99618052D01*
X125250000Y-99397648D01*
X126949500Y-99397648D01*
X126949500Y-99602351D01*
X126981522Y-99804534D01*
X127044781Y-99999223D01*
X127137715Y-100181613D01*
X127258028Y-100347213D01*
X127402786Y-100491971D01*
X127557749Y-100604556D01*
X127568390Y-100612287D01*
X127684607Y-100671503D01*
X127750776Y-100705218D01*
X127750778Y-100705218D01*
X127750781Y-100705220D01*
X127804450Y-100722658D01*
X127945465Y-100768477D01*
X128036616Y-100782914D01*
X128147648Y-100800500D01*
X128147649Y-100800500D01*
X128352351Y-100800500D01*
X128352352Y-100800500D01*
X128554534Y-100768477D01*
X128749219Y-100705220D01*
X128931610Y-100612287D01*
X129024590Y-100544732D01*
X129097213Y-100491971D01*
X129097215Y-100491968D01*
X129097219Y-100491966D01*
X129241966Y-100347219D01*
X129241968Y-100347215D01*
X129241971Y-100347213D01*
X129294732Y-100274590D01*
X129362287Y-100181610D01*
X129455220Y-99999219D01*
X129518477Y-99804534D01*
X129550500Y-99602352D01*
X129550500Y-99397648D01*
X129518477Y-99195466D01*
X129502549Y-99146446D01*
X129455218Y-99000776D01*
X129416198Y-98924197D01*
X129362287Y-98818390D01*
X129354556Y-98807749D01*
X129241971Y-98652786D01*
X129097213Y-98508028D01*
X128931613Y-98387715D01*
X128931612Y-98387714D01*
X128931610Y-98387713D01*
X128874653Y-98358691D01*
X128749223Y-98294781D01*
X128554534Y-98231522D01*
X128379995Y-98203878D01*
X128352352Y-98199500D01*
X128147648Y-98199500D01*
X128123329Y-98203351D01*
X127945465Y-98231522D01*
X127750776Y-98294781D01*
X127568386Y-98387715D01*
X127402786Y-98508028D01*
X127258028Y-98652786D01*
X127137715Y-98818386D01*
X127044781Y-99000776D01*
X126981522Y-99195465D01*
X126949500Y-99397648D01*
X125250000Y-99397648D01*
X125250000Y-99381947D01*
X125213065Y-99148752D01*
X125140102Y-98924197D01*
X125032914Y-98713828D01*
X124972658Y-98630894D01*
X124972658Y-98630893D01*
X124273787Y-99329765D01*
X124262518Y-99287708D01*
X124190110Y-99162292D01*
X124087708Y-99059890D01*
X123962292Y-98987482D01*
X123920234Y-98976212D01*
X124619105Y-98277340D01*
X124619104Y-98277338D01*
X124536174Y-98217087D01*
X124325802Y-98109897D01*
X124101247Y-98036934D01*
X124101248Y-98036934D01*
X123868052Y-98000000D01*
X123631948Y-98000000D01*
X123398752Y-98036934D01*
X123174197Y-98109897D01*
X122963830Y-98217084D01*
X122880894Y-98277340D01*
X123579766Y-98976212D01*
X123537708Y-98987482D01*
X123412292Y-99059890D01*
X123309890Y-99162292D01*
X123237482Y-99287708D01*
X123226212Y-99329766D01*
X122527340Y-98630894D01*
X122467084Y-98713830D01*
X122359897Y-98924197D01*
X122286934Y-99148752D01*
X122250000Y-99381947D01*
X121000500Y-99381947D01*
X121000500Y-95420943D01*
X134399500Y-95420943D01*
X134399500Y-95579056D01*
X134440423Y-95731783D01*
X134440426Y-95731790D01*
X134519475Y-95868709D01*
X134519479Y-95868714D01*
X134519480Y-95868716D01*
X134631284Y-95980520D01*
X134631286Y-95980521D01*
X134631290Y-95980524D01*
X134768209Y-96059573D01*
X134768216Y-96059577D01*
X134920943Y-96100500D01*
X134920945Y-96100500D01*
X135079055Y-96100500D01*
X135079057Y-96100500D01*
X135231784Y-96059577D01*
X135368716Y-95980520D01*
X135480520Y-95868716D01*
X135559577Y-95731784D01*
X135600500Y-95579057D01*
X135600500Y-95420943D01*
X146399500Y-95420943D01*
X146399500Y-95579056D01*
X146440423Y-95731783D01*
X146440426Y-95731790D01*
X146519475Y-95868709D01*
X146519479Y-95868714D01*
X146519480Y-95868716D01*
X146631284Y-95980520D01*
X146631286Y-95980521D01*
X146631290Y-95980524D01*
X146768209Y-96059573D01*
X146768216Y-96059577D01*
X146920943Y-96100500D01*
X146920945Y-96100500D01*
X147079055Y-96100500D01*
X147079057Y-96100500D01*
X147231784Y-96059577D01*
X147368716Y-95980520D01*
X147480520Y-95868716D01*
X147559577Y-95731784D01*
X147600500Y-95579057D01*
X147600500Y-95420943D01*
X147559577Y-95268216D01*
X147559573Y-95268209D01*
X147480524Y-95131290D01*
X147480518Y-95131282D01*
X147368717Y-95019481D01*
X147368709Y-95019475D01*
X147231790Y-94940426D01*
X147231786Y-94940424D01*
X147231784Y-94940423D01*
X147079057Y-94899500D01*
X146920943Y-94899500D01*
X146768216Y-94940423D01*
X146768209Y-94940426D01*
X146631290Y-95019475D01*
X146631282Y-95019481D01*
X146519481Y-95131282D01*
X146519475Y-95131290D01*
X146440426Y-95268209D01*
X146440423Y-95268216D01*
X146399500Y-95420943D01*
X135600500Y-95420943D01*
X135559577Y-95268216D01*
X135559573Y-95268209D01*
X135480524Y-95131290D01*
X135480518Y-95131282D01*
X135368717Y-95019481D01*
X135368709Y-95019475D01*
X135231790Y-94940426D01*
X135231786Y-94940424D01*
X135231784Y-94940423D01*
X135079057Y-94899500D01*
X134920943Y-94899500D01*
X134768216Y-94940423D01*
X134768209Y-94940426D01*
X134631290Y-95019475D01*
X134631282Y-95019481D01*
X134519481Y-95131282D01*
X134519475Y-95131290D01*
X134440426Y-95268209D01*
X134440423Y-95268216D01*
X134399500Y-95420943D01*
X121000500Y-95420943D01*
X121000500Y-87624500D01*
X121020185Y-87557461D01*
X121072989Y-87511706D01*
X121124500Y-87500500D01*
X162375500Y-87500500D01*
X162442539Y-87520185D01*
G37*
%TD.AperFunction*%
%TD*%
M02*
