%TF.GenerationSoftware,KiCad,Pcbnew,9.0.8*%
%TF.CreationDate,2026-06-29T10:42:59+03:00*%
%TF.ProjectId,STM32-QSPI-Flash-Board,53544d33-322d-4515-9350-492d466c6173,rev?*%
%TF.SameCoordinates,Original*%
%TF.FileFunction,Paste,Top*%
%TF.FilePolarity,Positive*%
%FSLAX46Y46*%
G04 Gerber Fmt 4.6, Leading zero omitted, Abs format (unit mm)*
G04 Created by KiCad (PCBNEW 9.0.8) date 2026-06-29 10:42:59*
%MOMM*%
%LPD*%
G01*
G04 APERTURE LIST*
G04 Aperture macros list*
%AMRoundRect*
0 Rectangle with rounded corners*
0 $1 Rounding radius*
0 $2 $3 $4 $5 $6 $7 $8 $9 X,Y pos of 4 corners*
0 Add a 4 corners polygon primitive as box body*
4,1,4,$2,$3,$4,$5,$6,$7,$8,$9,$2,$3,0*
0 Add four circle primitives for the rounded corners*
1,1,$1+$1,$2,$3*
1,1,$1+$1,$4,$5*
1,1,$1+$1,$6,$7*
1,1,$1+$1,$8,$9*
0 Add four rect primitives between the rounded corners*
20,1,$1+$1,$2,$3,$4,$5,0*
20,1,$1+$1,$4,$5,$6,$7,0*
20,1,$1+$1,$6,$7,$8,$9,0*
20,1,$1+$1,$8,$9,$2,$3,0*%
G04 Aperture macros list end*
%ADD10RoundRect,0.140000X-0.140000X-0.170000X0.140000X-0.170000X0.140000X0.170000X-0.140000X0.170000X0*%
%ADD11RoundRect,0.140000X-0.170000X0.140000X-0.170000X-0.140000X0.170000X-0.140000X0.170000X0.140000X0*%
%ADD12RoundRect,0.140000X0.140000X0.170000X-0.140000X0.170000X-0.140000X-0.170000X0.140000X-0.170000X0*%
%ADD13RoundRect,0.140000X0.170000X-0.140000X0.170000X0.140000X-0.170000X0.140000X-0.170000X-0.140000X0*%
%ADD14RoundRect,0.250000X-0.475000X0.250000X-0.475000X-0.250000X0.475000X-0.250000X0.475000X0.250000X0*%
%ADD15RoundRect,0.135000X-0.135000X-0.185000X0.135000X-0.185000X0.135000X0.185000X-0.135000X0.185000X0*%
%ADD16RoundRect,0.250000X-0.250000X-0.475000X0.250000X-0.475000X0.250000X0.475000X-0.250000X0.475000X0*%
%ADD17RoundRect,0.218750X0.381250X-0.218750X0.381250X0.218750X-0.381250X0.218750X-0.381250X-0.218750X0*%
%ADD18RoundRect,0.075000X0.075000X-0.725000X0.075000X0.725000X-0.075000X0.725000X-0.075000X-0.725000X0*%
%ADD19RoundRect,0.075000X0.725000X-0.075000X0.725000X0.075000X-0.725000X0.075000X-0.725000X-0.075000X0*%
%ADD20RoundRect,0.150000X0.825000X0.150000X-0.825000X0.150000X-0.825000X-0.150000X0.825000X-0.150000X0*%
%ADD21RoundRect,0.250000X0.475000X-0.250000X0.475000X0.250000X-0.475000X0.250000X-0.475000X-0.250000X0*%
G04 APERTURE END LIST*
D10*
%TO.C,C3*%
X150180000Y-106020000D03*
X151140000Y-106020000D03*
%TD*%
D11*
%TO.C,C9*%
X145000000Y-110180000D03*
X145000000Y-111140000D03*
%TD*%
D12*
%TO.C,C13*%
X153330000Y-103500000D03*
X152370000Y-103500000D03*
%TD*%
D11*
%TO.C,C1*%
X140000000Y-110180000D03*
X140000000Y-111140000D03*
%TD*%
D13*
%TO.C,C5*%
X135000000Y-91770000D03*
X135000000Y-90810000D03*
%TD*%
D10*
%TO.C,C4*%
X150180000Y-95000000D03*
X151140000Y-95000000D03*
%TD*%
D12*
%TO.C,C6*%
X131810000Y-106950000D03*
X130850000Y-106950000D03*
%TD*%
D14*
%TO.C,C8*%
X137500000Y-110500000D03*
X137500000Y-112400000D03*
%TD*%
D11*
%TO.C,C12*%
X141500000Y-110180000D03*
X141500000Y-111140000D03*
%TD*%
%TO.C,C7*%
X146000000Y-110180000D03*
X146000000Y-111140000D03*
%TD*%
%TO.C,C2*%
X144000000Y-110180000D03*
X144000000Y-111140000D03*
%TD*%
D15*
%TO.C,R1*%
X130790000Y-104010000D03*
X131810000Y-104010000D03*
%TD*%
D16*
%TO.C,C10*%
X150500000Y-96500000D03*
X152400000Y-96500000D03*
%TD*%
D17*
%TO.C,FB1*%
X147500000Y-112562500D03*
X147500000Y-110437500D03*
%TD*%
D18*
%TO.C,U2*%
X135000000Y-108675000D03*
X135500000Y-108675000D03*
X136000000Y-108675000D03*
X136500000Y-108675000D03*
X137000000Y-108675000D03*
X137500000Y-108675000D03*
X138000000Y-108675000D03*
X138500000Y-108675000D03*
X139000000Y-108675000D03*
X139500000Y-108675000D03*
X140000000Y-108675000D03*
X140500000Y-108675000D03*
X141000000Y-108675000D03*
X141500000Y-108675000D03*
X142000000Y-108675000D03*
X142500000Y-108675000D03*
X143000000Y-108675000D03*
X143500000Y-108675000D03*
X144000000Y-108675000D03*
X144500000Y-108675000D03*
X145000000Y-108675000D03*
X145500000Y-108675000D03*
X146000000Y-108675000D03*
X146500000Y-108675000D03*
X147000000Y-108675000D03*
D19*
X148675000Y-107000000D03*
X148675000Y-106500000D03*
X148675000Y-106000000D03*
X148675000Y-105500000D03*
X148675000Y-105000000D03*
X148675000Y-104500000D03*
X148675000Y-104000000D03*
X148675000Y-103500000D03*
X148675000Y-103000000D03*
X148675000Y-102500000D03*
X148675000Y-102000000D03*
X148675000Y-101500000D03*
X148675000Y-101000000D03*
X148675000Y-100500000D03*
X148675000Y-100000000D03*
X148675000Y-99500000D03*
X148675000Y-99000000D03*
X148675000Y-98500000D03*
X148675000Y-98000000D03*
X148675000Y-97500000D03*
X148675000Y-97000000D03*
X148675000Y-96500000D03*
X148675000Y-96000000D03*
X148675000Y-95500000D03*
X148675000Y-95000000D03*
D18*
X147000000Y-93325000D03*
X146500000Y-93325000D03*
X146000000Y-93325000D03*
X145500000Y-93325000D03*
X145000000Y-93325000D03*
X144500000Y-93325000D03*
X144000000Y-93325000D03*
X143500000Y-93325000D03*
X143000000Y-93325000D03*
X142500000Y-93325000D03*
X142000000Y-93325000D03*
X141500000Y-93325000D03*
X141000000Y-93325000D03*
X140500000Y-93325000D03*
X140000000Y-93325000D03*
X139500000Y-93325000D03*
X139000000Y-93325000D03*
X138500000Y-93325000D03*
X138000000Y-93325000D03*
X137500000Y-93325000D03*
X137000000Y-93325000D03*
X136500000Y-93325000D03*
X136000000Y-93325000D03*
X135500000Y-93325000D03*
X135000000Y-93325000D03*
D19*
X133325000Y-95000000D03*
X133325000Y-95500000D03*
X133325000Y-96000000D03*
X133325000Y-96500000D03*
X133325000Y-97000000D03*
X133325000Y-97500000D03*
X133325000Y-98000000D03*
X133325000Y-98500000D03*
X133325000Y-99000000D03*
X133325000Y-99500000D03*
X133325000Y-100000000D03*
X133325000Y-100500000D03*
X133325000Y-101000000D03*
X133325000Y-101500000D03*
X133325000Y-102000000D03*
X133325000Y-102500000D03*
X133325000Y-103000000D03*
X133325000Y-103500000D03*
X133325000Y-104000000D03*
X133325000Y-104500000D03*
X133325000Y-105000000D03*
X133325000Y-105500000D03*
X133325000Y-106000000D03*
X133325000Y-106500000D03*
X133325000Y-107000000D03*
%TD*%
D20*
%TO.C,U1*%
X159975000Y-103405000D03*
X159975000Y-102135000D03*
X159975000Y-100865000D03*
X159975000Y-99595000D03*
X155025000Y-99595000D03*
X155025000Y-100865000D03*
X155025000Y-102135000D03*
X155025000Y-103405000D03*
%TD*%
D21*
%TO.C,C11*%
X136500000Y-91450000D03*
X136500000Y-89550000D03*
%TD*%
M02*
