M48
; DRILL file {KiCad 9.0.8} date 2026-06-29T10:43:10+0300
; FORMAT={-:-/ absolute / metric / decimal}
; #@! TF.CreationDate,2026-06-29T10:43:10+03:00
; #@! TF.GenerationSoftware,Kicad,Pcbnew,9.0.8
; #@! TF.FileFunction,Plated,1,4,PTH
FMAT,2
METRIC
; #@! TA.AperFunction,Plated,PTH,ViaDrill
T1C0.300
; #@! TA.AperFunction,Plated,PTH,ComponentDrill
T2C1.100
%
G90
G05
T1
X131.0Y-105.0
X131.5Y-108.0
X133.0Y-108.0
X135.0Y-95.5
X135.0Y-106.5
X136.0Y-95.5
X139.0Y-110.5
X139.0Y-112.0
X139.5Y-107.0
X141.5Y-112.0
X143.0Y-110.5
X143.0Y-111.5
X144.5Y-107.0
X146.174Y-104.826
X147.0Y-95.5
X149.0Y-113.5
X150.0Y-104.5
X150.75Y-105.25
X151.5Y-103.5
X152.0Y-95.0
X154.5Y-104.5
X160.0Y-98.5
T2
X123.75Y-99.5
X123.75Y-106.0
X128.25Y-99.5
X128.25Y-106.0
M30
