%TF.GenerationSoftware,KiCad,Pcbnew,9.0.8*%
%TF.CreationDate,2026-06-29T10:42:59+03:00*%
%TF.ProjectId,STM32-QSPI-Flash-Board,53544d33-322d-4515-9350-492d466c6173,rev?*%
%TF.SameCoordinates,Original*%
%TF.FileFunction,Legend,Top*%
%TF.FilePolarity,Positive*%
%FSLAX46Y46*%
G04 Gerber Fmt 4.6, Leading zero omitted, Abs format (unit mm)*
G04 Created by KiCad (PCBNEW 9.0.8) date 2026-06-29 10:42:59*
%MOMM*%
%LPD*%
G01*
G04 APERTURE LIST*
%ADD10C,0.125000*%
%ADD11C,0.120000*%
G04 APERTURE END LIST*
D10*
X152866667Y-106287404D02*
X152828571Y-106325500D01*
X152828571Y-106325500D02*
X152714286Y-106363595D01*
X152714286Y-106363595D02*
X152638095Y-106363595D01*
X152638095Y-106363595D02*
X152523809Y-106325500D01*
X152523809Y-106325500D02*
X152447619Y-106249309D01*
X152447619Y-106249309D02*
X152409524Y-106173119D01*
X152409524Y-106173119D02*
X152371428Y-106020738D01*
X152371428Y-106020738D02*
X152371428Y-105906452D01*
X152371428Y-105906452D02*
X152409524Y-105754071D01*
X152409524Y-105754071D02*
X152447619Y-105677880D01*
X152447619Y-105677880D02*
X152523809Y-105601690D01*
X152523809Y-105601690D02*
X152638095Y-105563595D01*
X152638095Y-105563595D02*
X152714286Y-105563595D01*
X152714286Y-105563595D02*
X152828571Y-105601690D01*
X152828571Y-105601690D02*
X152866667Y-105639785D01*
X153133333Y-105563595D02*
X153628571Y-105563595D01*
X153628571Y-105563595D02*
X153361905Y-105868357D01*
X153361905Y-105868357D02*
X153476190Y-105868357D01*
X153476190Y-105868357D02*
X153552381Y-105906452D01*
X153552381Y-105906452D02*
X153590476Y-105944547D01*
X153590476Y-105944547D02*
X153628571Y-106020738D01*
X153628571Y-106020738D02*
X153628571Y-106211214D01*
X153628571Y-106211214D02*
X153590476Y-106287404D01*
X153590476Y-106287404D02*
X153552381Y-106325500D01*
X153552381Y-106325500D02*
X153476190Y-106363595D01*
X153476190Y-106363595D02*
X153247619Y-106363595D01*
X153247619Y-106363595D02*
X153171428Y-106325500D01*
X153171428Y-106325500D02*
X153133333Y-106287404D01*
X145287404Y-112633332D02*
X145325500Y-112671428D01*
X145325500Y-112671428D02*
X145363595Y-112785713D01*
X145363595Y-112785713D02*
X145363595Y-112861904D01*
X145363595Y-112861904D02*
X145325500Y-112976190D01*
X145325500Y-112976190D02*
X145249309Y-113052380D01*
X145249309Y-113052380D02*
X145173119Y-113090475D01*
X145173119Y-113090475D02*
X145020738Y-113128571D01*
X145020738Y-113128571D02*
X144906452Y-113128571D01*
X144906452Y-113128571D02*
X144754071Y-113090475D01*
X144754071Y-113090475D02*
X144677880Y-113052380D01*
X144677880Y-113052380D02*
X144601690Y-112976190D01*
X144601690Y-112976190D02*
X144563595Y-112861904D01*
X144563595Y-112861904D02*
X144563595Y-112785713D01*
X144563595Y-112785713D02*
X144601690Y-112671428D01*
X144601690Y-112671428D02*
X144639785Y-112633332D01*
X145363595Y-112252380D02*
X145363595Y-112099999D01*
X145363595Y-112099999D02*
X145325500Y-112023809D01*
X145325500Y-112023809D02*
X145287404Y-111985713D01*
X145287404Y-111985713D02*
X145173119Y-111909523D01*
X145173119Y-111909523D02*
X145020738Y-111871428D01*
X145020738Y-111871428D02*
X144715976Y-111871428D01*
X144715976Y-111871428D02*
X144639785Y-111909523D01*
X144639785Y-111909523D02*
X144601690Y-111947618D01*
X144601690Y-111947618D02*
X144563595Y-112023809D01*
X144563595Y-112023809D02*
X144563595Y-112176190D01*
X144563595Y-112176190D02*
X144601690Y-112252380D01*
X144601690Y-112252380D02*
X144639785Y-112290475D01*
X144639785Y-112290475D02*
X144715976Y-112328571D01*
X144715976Y-112328571D02*
X144906452Y-112328571D01*
X144906452Y-112328571D02*
X144982642Y-112290475D01*
X144982642Y-112290475D02*
X145020738Y-112252380D01*
X145020738Y-112252380D02*
X145058833Y-112176190D01*
X145058833Y-112176190D02*
X145058833Y-112023809D01*
X145058833Y-112023809D02*
X145020738Y-111947618D01*
X145020738Y-111947618D02*
X144982642Y-111909523D01*
X144982642Y-111909523D02*
X144906452Y-111871428D01*
X152485714Y-105287404D02*
X152447618Y-105325500D01*
X152447618Y-105325500D02*
X152333333Y-105363595D01*
X152333333Y-105363595D02*
X152257142Y-105363595D01*
X152257142Y-105363595D02*
X152142856Y-105325500D01*
X152142856Y-105325500D02*
X152066666Y-105249309D01*
X152066666Y-105249309D02*
X152028571Y-105173119D01*
X152028571Y-105173119D02*
X151990475Y-105020738D01*
X151990475Y-105020738D02*
X151990475Y-104906452D01*
X151990475Y-104906452D02*
X152028571Y-104754071D01*
X152028571Y-104754071D02*
X152066666Y-104677880D01*
X152066666Y-104677880D02*
X152142856Y-104601690D01*
X152142856Y-104601690D02*
X152257142Y-104563595D01*
X152257142Y-104563595D02*
X152333333Y-104563595D01*
X152333333Y-104563595D02*
X152447618Y-104601690D01*
X152447618Y-104601690D02*
X152485714Y-104639785D01*
X153247618Y-105363595D02*
X152790475Y-105363595D01*
X153019047Y-105363595D02*
X153019047Y-104563595D01*
X153019047Y-104563595D02*
X152942856Y-104677880D01*
X152942856Y-104677880D02*
X152866666Y-104754071D01*
X152866666Y-104754071D02*
X152790475Y-104792166D01*
X153514285Y-104563595D02*
X154009523Y-104563595D01*
X154009523Y-104563595D02*
X153742857Y-104868357D01*
X153742857Y-104868357D02*
X153857142Y-104868357D01*
X153857142Y-104868357D02*
X153933333Y-104906452D01*
X153933333Y-104906452D02*
X153971428Y-104944547D01*
X153971428Y-104944547D02*
X154009523Y-105020738D01*
X154009523Y-105020738D02*
X154009523Y-105211214D01*
X154009523Y-105211214D02*
X153971428Y-105287404D01*
X153971428Y-105287404D02*
X153933333Y-105325500D01*
X153933333Y-105325500D02*
X153857142Y-105363595D01*
X153857142Y-105363595D02*
X153628571Y-105363595D01*
X153628571Y-105363595D02*
X153552380Y-105325500D01*
X153552380Y-105325500D02*
X153514285Y-105287404D01*
X140287404Y-113633332D02*
X140325500Y-113671428D01*
X140325500Y-113671428D02*
X140363595Y-113785713D01*
X140363595Y-113785713D02*
X140363595Y-113861904D01*
X140363595Y-113861904D02*
X140325500Y-113976190D01*
X140325500Y-113976190D02*
X140249309Y-114052380D01*
X140249309Y-114052380D02*
X140173119Y-114090475D01*
X140173119Y-114090475D02*
X140020738Y-114128571D01*
X140020738Y-114128571D02*
X139906452Y-114128571D01*
X139906452Y-114128571D02*
X139754071Y-114090475D01*
X139754071Y-114090475D02*
X139677880Y-114052380D01*
X139677880Y-114052380D02*
X139601690Y-113976190D01*
X139601690Y-113976190D02*
X139563595Y-113861904D01*
X139563595Y-113861904D02*
X139563595Y-113785713D01*
X139563595Y-113785713D02*
X139601690Y-113671428D01*
X139601690Y-113671428D02*
X139639785Y-113633332D01*
X140363595Y-112871428D02*
X140363595Y-113328571D01*
X140363595Y-113099999D02*
X139563595Y-113099999D01*
X139563595Y-113099999D02*
X139677880Y-113176190D01*
X139677880Y-113176190D02*
X139754071Y-113252380D01*
X139754071Y-113252380D02*
X139792166Y-113328571D01*
X135287404Y-89423332D02*
X135325500Y-89461428D01*
X135325500Y-89461428D02*
X135363595Y-89575713D01*
X135363595Y-89575713D02*
X135363595Y-89651904D01*
X135363595Y-89651904D02*
X135325500Y-89766190D01*
X135325500Y-89766190D02*
X135249309Y-89842380D01*
X135249309Y-89842380D02*
X135173119Y-89880475D01*
X135173119Y-89880475D02*
X135020738Y-89918571D01*
X135020738Y-89918571D02*
X134906452Y-89918571D01*
X134906452Y-89918571D02*
X134754071Y-89880475D01*
X134754071Y-89880475D02*
X134677880Y-89842380D01*
X134677880Y-89842380D02*
X134601690Y-89766190D01*
X134601690Y-89766190D02*
X134563595Y-89651904D01*
X134563595Y-89651904D02*
X134563595Y-89575713D01*
X134563595Y-89575713D02*
X134601690Y-89461428D01*
X134601690Y-89461428D02*
X134639785Y-89423332D01*
X134563595Y-88699523D02*
X134563595Y-89080475D01*
X134563595Y-89080475D02*
X134944547Y-89118571D01*
X134944547Y-89118571D02*
X134906452Y-89080475D01*
X134906452Y-89080475D02*
X134868357Y-89004285D01*
X134868357Y-89004285D02*
X134868357Y-88813809D01*
X134868357Y-88813809D02*
X134906452Y-88737618D01*
X134906452Y-88737618D02*
X134944547Y-88699523D01*
X134944547Y-88699523D02*
X135020738Y-88661428D01*
X135020738Y-88661428D02*
X135211214Y-88661428D01*
X135211214Y-88661428D02*
X135287404Y-88699523D01*
X135287404Y-88699523D02*
X135325500Y-88737618D01*
X135325500Y-88737618D02*
X135363595Y-88813809D01*
X135363595Y-88813809D02*
X135363595Y-89004285D01*
X135363595Y-89004285D02*
X135325500Y-89080475D01*
X135325500Y-89080475D02*
X135287404Y-89118571D01*
X148866667Y-92787404D02*
X148828571Y-92825500D01*
X148828571Y-92825500D02*
X148714286Y-92863595D01*
X148714286Y-92863595D02*
X148638095Y-92863595D01*
X148638095Y-92863595D02*
X148523809Y-92825500D01*
X148523809Y-92825500D02*
X148447619Y-92749309D01*
X148447619Y-92749309D02*
X148409524Y-92673119D01*
X148409524Y-92673119D02*
X148371428Y-92520738D01*
X148371428Y-92520738D02*
X148371428Y-92406452D01*
X148371428Y-92406452D02*
X148409524Y-92254071D01*
X148409524Y-92254071D02*
X148447619Y-92177880D01*
X148447619Y-92177880D02*
X148523809Y-92101690D01*
X148523809Y-92101690D02*
X148638095Y-92063595D01*
X148638095Y-92063595D02*
X148714286Y-92063595D01*
X148714286Y-92063595D02*
X148828571Y-92101690D01*
X148828571Y-92101690D02*
X148866667Y-92139785D01*
X149552381Y-92330261D02*
X149552381Y-92863595D01*
X149361905Y-92025500D02*
X149171428Y-92596928D01*
X149171428Y-92596928D02*
X149666667Y-92596928D01*
X130866667Y-106287404D02*
X130828571Y-106325500D01*
X130828571Y-106325500D02*
X130714286Y-106363595D01*
X130714286Y-106363595D02*
X130638095Y-106363595D01*
X130638095Y-106363595D02*
X130523809Y-106325500D01*
X130523809Y-106325500D02*
X130447619Y-106249309D01*
X130447619Y-106249309D02*
X130409524Y-106173119D01*
X130409524Y-106173119D02*
X130371428Y-106020738D01*
X130371428Y-106020738D02*
X130371428Y-105906452D01*
X130371428Y-105906452D02*
X130409524Y-105754071D01*
X130409524Y-105754071D02*
X130447619Y-105677880D01*
X130447619Y-105677880D02*
X130523809Y-105601690D01*
X130523809Y-105601690D02*
X130638095Y-105563595D01*
X130638095Y-105563595D02*
X130714286Y-105563595D01*
X130714286Y-105563595D02*
X130828571Y-105601690D01*
X130828571Y-105601690D02*
X130866667Y-105639785D01*
X131552381Y-105563595D02*
X131400000Y-105563595D01*
X131400000Y-105563595D02*
X131323809Y-105601690D01*
X131323809Y-105601690D02*
X131285714Y-105639785D01*
X131285714Y-105639785D02*
X131209524Y-105754071D01*
X131209524Y-105754071D02*
X131171428Y-105906452D01*
X131171428Y-105906452D02*
X131171428Y-106211214D01*
X131171428Y-106211214D02*
X131209524Y-106287404D01*
X131209524Y-106287404D02*
X131247619Y-106325500D01*
X131247619Y-106325500D02*
X131323809Y-106363595D01*
X131323809Y-106363595D02*
X131476190Y-106363595D01*
X131476190Y-106363595D02*
X131552381Y-106325500D01*
X131552381Y-106325500D02*
X131590476Y-106287404D01*
X131590476Y-106287404D02*
X131628571Y-106211214D01*
X131628571Y-106211214D02*
X131628571Y-106020738D01*
X131628571Y-106020738D02*
X131590476Y-105944547D01*
X131590476Y-105944547D02*
X131552381Y-105906452D01*
X131552381Y-105906452D02*
X131476190Y-105868357D01*
X131476190Y-105868357D02*
X131323809Y-105868357D01*
X131323809Y-105868357D02*
X131247619Y-105906452D01*
X131247619Y-105906452D02*
X131209524Y-105944547D01*
X131209524Y-105944547D02*
X131171428Y-106020738D01*
X122075500Y-103816667D02*
X122113595Y-103702381D01*
X122113595Y-103702381D02*
X122113595Y-103511905D01*
X122113595Y-103511905D02*
X122075500Y-103435714D01*
X122075500Y-103435714D02*
X122037404Y-103397619D01*
X122037404Y-103397619D02*
X121961214Y-103359524D01*
X121961214Y-103359524D02*
X121885023Y-103359524D01*
X121885023Y-103359524D02*
X121808833Y-103397619D01*
X121808833Y-103397619D02*
X121770738Y-103435714D01*
X121770738Y-103435714D02*
X121732642Y-103511905D01*
X121732642Y-103511905D02*
X121694547Y-103664286D01*
X121694547Y-103664286D02*
X121656452Y-103740476D01*
X121656452Y-103740476D02*
X121618357Y-103778571D01*
X121618357Y-103778571D02*
X121542166Y-103816667D01*
X121542166Y-103816667D02*
X121465976Y-103816667D01*
X121465976Y-103816667D02*
X121389785Y-103778571D01*
X121389785Y-103778571D02*
X121351690Y-103740476D01*
X121351690Y-103740476D02*
X121313595Y-103664286D01*
X121313595Y-103664286D02*
X121313595Y-103473809D01*
X121313595Y-103473809D02*
X121351690Y-103359524D01*
X121313595Y-103092857D02*
X122113595Y-102902381D01*
X122113595Y-102902381D02*
X121542166Y-102750000D01*
X121542166Y-102750000D02*
X122113595Y-102597619D01*
X122113595Y-102597619D02*
X121313595Y-102407143D01*
X122113595Y-101683333D02*
X122113595Y-102140476D01*
X122113595Y-101911904D02*
X121313595Y-101911904D01*
X121313595Y-101911904D02*
X121427880Y-101988095D01*
X121427880Y-101988095D02*
X121504071Y-102064285D01*
X121504071Y-102064285D02*
X121542166Y-102140476D01*
X136287404Y-111633332D02*
X136325500Y-111671428D01*
X136325500Y-111671428D02*
X136363595Y-111785713D01*
X136363595Y-111785713D02*
X136363595Y-111861904D01*
X136363595Y-111861904D02*
X136325500Y-111976190D01*
X136325500Y-111976190D02*
X136249309Y-112052380D01*
X136249309Y-112052380D02*
X136173119Y-112090475D01*
X136173119Y-112090475D02*
X136020738Y-112128571D01*
X136020738Y-112128571D02*
X135906452Y-112128571D01*
X135906452Y-112128571D02*
X135754071Y-112090475D01*
X135754071Y-112090475D02*
X135677880Y-112052380D01*
X135677880Y-112052380D02*
X135601690Y-111976190D01*
X135601690Y-111976190D02*
X135563595Y-111861904D01*
X135563595Y-111861904D02*
X135563595Y-111785713D01*
X135563595Y-111785713D02*
X135601690Y-111671428D01*
X135601690Y-111671428D02*
X135639785Y-111633332D01*
X135906452Y-111176190D02*
X135868357Y-111252380D01*
X135868357Y-111252380D02*
X135830261Y-111290475D01*
X135830261Y-111290475D02*
X135754071Y-111328571D01*
X135754071Y-111328571D02*
X135715976Y-111328571D01*
X135715976Y-111328571D02*
X135639785Y-111290475D01*
X135639785Y-111290475D02*
X135601690Y-111252380D01*
X135601690Y-111252380D02*
X135563595Y-111176190D01*
X135563595Y-111176190D02*
X135563595Y-111023809D01*
X135563595Y-111023809D02*
X135601690Y-110947618D01*
X135601690Y-110947618D02*
X135639785Y-110909523D01*
X135639785Y-110909523D02*
X135715976Y-110871428D01*
X135715976Y-110871428D02*
X135754071Y-110871428D01*
X135754071Y-110871428D02*
X135830261Y-110909523D01*
X135830261Y-110909523D02*
X135868357Y-110947618D01*
X135868357Y-110947618D02*
X135906452Y-111023809D01*
X135906452Y-111023809D02*
X135906452Y-111176190D01*
X135906452Y-111176190D02*
X135944547Y-111252380D01*
X135944547Y-111252380D02*
X135982642Y-111290475D01*
X135982642Y-111290475D02*
X136058833Y-111328571D01*
X136058833Y-111328571D02*
X136211214Y-111328571D01*
X136211214Y-111328571D02*
X136287404Y-111290475D01*
X136287404Y-111290475D02*
X136325500Y-111252380D01*
X136325500Y-111252380D02*
X136363595Y-111176190D01*
X136363595Y-111176190D02*
X136363595Y-111023809D01*
X136363595Y-111023809D02*
X136325500Y-110947618D01*
X136325500Y-110947618D02*
X136287404Y-110909523D01*
X136287404Y-110909523D02*
X136211214Y-110871428D01*
X136211214Y-110871428D02*
X136058833Y-110871428D01*
X136058833Y-110871428D02*
X135982642Y-110909523D01*
X135982642Y-110909523D02*
X135944547Y-110947618D01*
X135944547Y-110947618D02*
X135906452Y-111023809D01*
X142787404Y-113514285D02*
X142825500Y-113552381D01*
X142825500Y-113552381D02*
X142863595Y-113666666D01*
X142863595Y-113666666D02*
X142863595Y-113742857D01*
X142863595Y-113742857D02*
X142825500Y-113857143D01*
X142825500Y-113857143D02*
X142749309Y-113933333D01*
X142749309Y-113933333D02*
X142673119Y-113971428D01*
X142673119Y-113971428D02*
X142520738Y-114009524D01*
X142520738Y-114009524D02*
X142406452Y-114009524D01*
X142406452Y-114009524D02*
X142254071Y-113971428D01*
X142254071Y-113971428D02*
X142177880Y-113933333D01*
X142177880Y-113933333D02*
X142101690Y-113857143D01*
X142101690Y-113857143D02*
X142063595Y-113742857D01*
X142063595Y-113742857D02*
X142063595Y-113666666D01*
X142063595Y-113666666D02*
X142101690Y-113552381D01*
X142101690Y-113552381D02*
X142139785Y-113514285D01*
X142863595Y-112752381D02*
X142863595Y-113209524D01*
X142863595Y-112980952D02*
X142063595Y-112980952D01*
X142063595Y-112980952D02*
X142177880Y-113057143D01*
X142177880Y-113057143D02*
X142254071Y-113133333D01*
X142254071Y-113133333D02*
X142292166Y-113209524D01*
X142139785Y-112447619D02*
X142101690Y-112409523D01*
X142101690Y-112409523D02*
X142063595Y-112333333D01*
X142063595Y-112333333D02*
X142063595Y-112142857D01*
X142063595Y-112142857D02*
X142101690Y-112066666D01*
X142101690Y-112066666D02*
X142139785Y-112028571D01*
X142139785Y-112028571D02*
X142215976Y-111990476D01*
X142215976Y-111990476D02*
X142292166Y-111990476D01*
X142292166Y-111990476D02*
X142406452Y-112028571D01*
X142406452Y-112028571D02*
X142863595Y-112485714D01*
X142863595Y-112485714D02*
X142863595Y-111990476D01*
X146287404Y-112633332D02*
X146325500Y-112671428D01*
X146325500Y-112671428D02*
X146363595Y-112785713D01*
X146363595Y-112785713D02*
X146363595Y-112861904D01*
X146363595Y-112861904D02*
X146325500Y-112976190D01*
X146325500Y-112976190D02*
X146249309Y-113052380D01*
X146249309Y-113052380D02*
X146173119Y-113090475D01*
X146173119Y-113090475D02*
X146020738Y-113128571D01*
X146020738Y-113128571D02*
X145906452Y-113128571D01*
X145906452Y-113128571D02*
X145754071Y-113090475D01*
X145754071Y-113090475D02*
X145677880Y-113052380D01*
X145677880Y-113052380D02*
X145601690Y-112976190D01*
X145601690Y-112976190D02*
X145563595Y-112861904D01*
X145563595Y-112861904D02*
X145563595Y-112785713D01*
X145563595Y-112785713D02*
X145601690Y-112671428D01*
X145601690Y-112671428D02*
X145639785Y-112633332D01*
X145563595Y-112366666D02*
X145563595Y-111833332D01*
X145563595Y-111833332D02*
X146363595Y-112176190D01*
X144287404Y-112633332D02*
X144325500Y-112671428D01*
X144325500Y-112671428D02*
X144363595Y-112785713D01*
X144363595Y-112785713D02*
X144363595Y-112861904D01*
X144363595Y-112861904D02*
X144325500Y-112976190D01*
X144325500Y-112976190D02*
X144249309Y-113052380D01*
X144249309Y-113052380D02*
X144173119Y-113090475D01*
X144173119Y-113090475D02*
X144020738Y-113128571D01*
X144020738Y-113128571D02*
X143906452Y-113128571D01*
X143906452Y-113128571D02*
X143754071Y-113090475D01*
X143754071Y-113090475D02*
X143677880Y-113052380D01*
X143677880Y-113052380D02*
X143601690Y-112976190D01*
X143601690Y-112976190D02*
X143563595Y-112861904D01*
X143563595Y-112861904D02*
X143563595Y-112785713D01*
X143563595Y-112785713D02*
X143601690Y-112671428D01*
X143601690Y-112671428D02*
X143639785Y-112633332D01*
X143639785Y-112328571D02*
X143601690Y-112290475D01*
X143601690Y-112290475D02*
X143563595Y-112214285D01*
X143563595Y-112214285D02*
X143563595Y-112023809D01*
X143563595Y-112023809D02*
X143601690Y-111947618D01*
X143601690Y-111947618D02*
X143639785Y-111909523D01*
X143639785Y-111909523D02*
X143715976Y-111871428D01*
X143715976Y-111871428D02*
X143792166Y-111871428D01*
X143792166Y-111871428D02*
X143906452Y-111909523D01*
X143906452Y-111909523D02*
X144363595Y-112366666D01*
X144363595Y-112366666D02*
X144363595Y-111871428D01*
X130866667Y-103363595D02*
X130600000Y-102982642D01*
X130409524Y-103363595D02*
X130409524Y-102563595D01*
X130409524Y-102563595D02*
X130714286Y-102563595D01*
X130714286Y-102563595D02*
X130790476Y-102601690D01*
X130790476Y-102601690D02*
X130828571Y-102639785D01*
X130828571Y-102639785D02*
X130866667Y-102715976D01*
X130866667Y-102715976D02*
X130866667Y-102830261D01*
X130866667Y-102830261D02*
X130828571Y-102906452D01*
X130828571Y-102906452D02*
X130790476Y-102944547D01*
X130790476Y-102944547D02*
X130714286Y-102982642D01*
X130714286Y-102982642D02*
X130409524Y-102982642D01*
X131628571Y-103363595D02*
X131171428Y-103363595D01*
X131400000Y-103363595D02*
X131400000Y-102563595D01*
X131400000Y-102563595D02*
X131323809Y-102677880D01*
X131323809Y-102677880D02*
X131247619Y-102754071D01*
X131247619Y-102754071D02*
X131171428Y-102792166D01*
X150485714Y-98287404D02*
X150447618Y-98325500D01*
X150447618Y-98325500D02*
X150333333Y-98363595D01*
X150333333Y-98363595D02*
X150257142Y-98363595D01*
X150257142Y-98363595D02*
X150142856Y-98325500D01*
X150142856Y-98325500D02*
X150066666Y-98249309D01*
X150066666Y-98249309D02*
X150028571Y-98173119D01*
X150028571Y-98173119D02*
X149990475Y-98020738D01*
X149990475Y-98020738D02*
X149990475Y-97906452D01*
X149990475Y-97906452D02*
X150028571Y-97754071D01*
X150028571Y-97754071D02*
X150066666Y-97677880D01*
X150066666Y-97677880D02*
X150142856Y-97601690D01*
X150142856Y-97601690D02*
X150257142Y-97563595D01*
X150257142Y-97563595D02*
X150333333Y-97563595D01*
X150333333Y-97563595D02*
X150447618Y-97601690D01*
X150447618Y-97601690D02*
X150485714Y-97639785D01*
X151247618Y-98363595D02*
X150790475Y-98363595D01*
X151019047Y-98363595D02*
X151019047Y-97563595D01*
X151019047Y-97563595D02*
X150942856Y-97677880D01*
X150942856Y-97677880D02*
X150866666Y-97754071D01*
X150866666Y-97754071D02*
X150790475Y-97792166D01*
X151742857Y-97563595D02*
X151819047Y-97563595D01*
X151819047Y-97563595D02*
X151895238Y-97601690D01*
X151895238Y-97601690D02*
X151933333Y-97639785D01*
X151933333Y-97639785D02*
X151971428Y-97715976D01*
X151971428Y-97715976D02*
X152009523Y-97868357D01*
X152009523Y-97868357D02*
X152009523Y-98058833D01*
X152009523Y-98058833D02*
X151971428Y-98211214D01*
X151971428Y-98211214D02*
X151933333Y-98287404D01*
X151933333Y-98287404D02*
X151895238Y-98325500D01*
X151895238Y-98325500D02*
X151819047Y-98363595D01*
X151819047Y-98363595D02*
X151742857Y-98363595D01*
X151742857Y-98363595D02*
X151666666Y-98325500D01*
X151666666Y-98325500D02*
X151628571Y-98287404D01*
X151628571Y-98287404D02*
X151590476Y-98211214D01*
X151590476Y-98211214D02*
X151552380Y-98058833D01*
X151552380Y-98058833D02*
X151552380Y-97868357D01*
X151552380Y-97868357D02*
X151590476Y-97715976D01*
X151590476Y-97715976D02*
X151628571Y-97639785D01*
X151628571Y-97639785D02*
X151666666Y-97601690D01*
X151666666Y-97601690D02*
X151742857Y-97563595D01*
X148944547Y-111666666D02*
X148944547Y-111933332D01*
X149363595Y-111933332D02*
X148563595Y-111933332D01*
X148563595Y-111933332D02*
X148563595Y-111552380D01*
X148944547Y-110980952D02*
X148982642Y-110866666D01*
X148982642Y-110866666D02*
X149020738Y-110828571D01*
X149020738Y-110828571D02*
X149096928Y-110790475D01*
X149096928Y-110790475D02*
X149211214Y-110790475D01*
X149211214Y-110790475D02*
X149287404Y-110828571D01*
X149287404Y-110828571D02*
X149325500Y-110866666D01*
X149325500Y-110866666D02*
X149363595Y-110942856D01*
X149363595Y-110942856D02*
X149363595Y-111247618D01*
X149363595Y-111247618D02*
X148563595Y-111247618D01*
X148563595Y-111247618D02*
X148563595Y-110980952D01*
X148563595Y-110980952D02*
X148601690Y-110904761D01*
X148601690Y-110904761D02*
X148639785Y-110866666D01*
X148639785Y-110866666D02*
X148715976Y-110828571D01*
X148715976Y-110828571D02*
X148792166Y-110828571D01*
X148792166Y-110828571D02*
X148868357Y-110866666D01*
X148868357Y-110866666D02*
X148906452Y-110904761D01*
X148906452Y-110904761D02*
X148944547Y-110980952D01*
X148944547Y-110980952D02*
X148944547Y-111247618D01*
X149363595Y-110028571D02*
X149363595Y-110485714D01*
X149363595Y-110257142D02*
X148563595Y-110257142D01*
X148563595Y-110257142D02*
X148677880Y-110333333D01*
X148677880Y-110333333D02*
X148754071Y-110409523D01*
X148754071Y-110409523D02*
X148792166Y-110485714D01*
X131133595Y-100609523D02*
X131781214Y-100609523D01*
X131781214Y-100609523D02*
X131857404Y-100571428D01*
X131857404Y-100571428D02*
X131895500Y-100533333D01*
X131895500Y-100533333D02*
X131933595Y-100457142D01*
X131933595Y-100457142D02*
X131933595Y-100304761D01*
X131933595Y-100304761D02*
X131895500Y-100228571D01*
X131895500Y-100228571D02*
X131857404Y-100190476D01*
X131857404Y-100190476D02*
X131781214Y-100152380D01*
X131781214Y-100152380D02*
X131133595Y-100152380D01*
X131209785Y-99809524D02*
X131171690Y-99771428D01*
X131171690Y-99771428D02*
X131133595Y-99695238D01*
X131133595Y-99695238D02*
X131133595Y-99504762D01*
X131133595Y-99504762D02*
X131171690Y-99428571D01*
X131171690Y-99428571D02*
X131209785Y-99390476D01*
X131209785Y-99390476D02*
X131285976Y-99352381D01*
X131285976Y-99352381D02*
X131362166Y-99352381D01*
X131362166Y-99352381D02*
X131476452Y-99390476D01*
X131476452Y-99390476D02*
X131933595Y-99847619D01*
X131933595Y-99847619D02*
X131933595Y-99352381D01*
X156890476Y-97698595D02*
X156890476Y-98346214D01*
X156890476Y-98346214D02*
X156928571Y-98422404D01*
X156928571Y-98422404D02*
X156966666Y-98460500D01*
X156966666Y-98460500D02*
X157042857Y-98498595D01*
X157042857Y-98498595D02*
X157195238Y-98498595D01*
X157195238Y-98498595D02*
X157271428Y-98460500D01*
X157271428Y-98460500D02*
X157309523Y-98422404D01*
X157309523Y-98422404D02*
X157347619Y-98346214D01*
X157347619Y-98346214D02*
X157347619Y-97698595D01*
X158147618Y-98498595D02*
X157690475Y-98498595D01*
X157919047Y-98498595D02*
X157919047Y-97698595D01*
X157919047Y-97698595D02*
X157842856Y-97812880D01*
X157842856Y-97812880D02*
X157766666Y-97889071D01*
X157766666Y-97889071D02*
X157690475Y-97927166D01*
X138787404Y-91014285D02*
X138825500Y-91052381D01*
X138825500Y-91052381D02*
X138863595Y-91166666D01*
X138863595Y-91166666D02*
X138863595Y-91242857D01*
X138863595Y-91242857D02*
X138825500Y-91357143D01*
X138825500Y-91357143D02*
X138749309Y-91433333D01*
X138749309Y-91433333D02*
X138673119Y-91471428D01*
X138673119Y-91471428D02*
X138520738Y-91509524D01*
X138520738Y-91509524D02*
X138406452Y-91509524D01*
X138406452Y-91509524D02*
X138254071Y-91471428D01*
X138254071Y-91471428D02*
X138177880Y-91433333D01*
X138177880Y-91433333D02*
X138101690Y-91357143D01*
X138101690Y-91357143D02*
X138063595Y-91242857D01*
X138063595Y-91242857D02*
X138063595Y-91166666D01*
X138063595Y-91166666D02*
X138101690Y-91052381D01*
X138101690Y-91052381D02*
X138139785Y-91014285D01*
X138863595Y-90252381D02*
X138863595Y-90709524D01*
X138863595Y-90480952D02*
X138063595Y-90480952D01*
X138063595Y-90480952D02*
X138177880Y-90557143D01*
X138177880Y-90557143D02*
X138254071Y-90633333D01*
X138254071Y-90633333D02*
X138292166Y-90709524D01*
X138863595Y-89490476D02*
X138863595Y-89947619D01*
X138863595Y-89719047D02*
X138063595Y-89719047D01*
X138063595Y-89719047D02*
X138177880Y-89795238D01*
X138177880Y-89795238D02*
X138254071Y-89871428D01*
X138254071Y-89871428D02*
X138292166Y-89947619D01*
D11*
%TO.C,C3*%
X150552164Y-105660000D02*
X150767836Y-105660000D01*
X150552164Y-106380000D02*
X150767836Y-106380000D01*
%TO.C,C9*%
X144640000Y-110552164D02*
X144640000Y-110767836D01*
X145360000Y-110552164D02*
X145360000Y-110767836D01*
%TO.C,C13*%
X152957836Y-103140000D02*
X152742164Y-103140000D01*
X152957836Y-103860000D02*
X152742164Y-103860000D01*
%TO.C,C1*%
X139640000Y-110552164D02*
X139640000Y-110767836D01*
X140360000Y-110552164D02*
X140360000Y-110767836D01*
%TO.C,C5*%
X134640000Y-91397836D02*
X134640000Y-91182164D01*
X135360000Y-91397836D02*
X135360000Y-91182164D01*
%TO.C,C4*%
X150552164Y-94640000D02*
X150767836Y-94640000D01*
X150552164Y-95360000D02*
X150767836Y-95360000D01*
%TO.C,C6*%
X131437836Y-106590000D02*
X131222164Y-106590000D01*
X131437836Y-107310000D02*
X131222164Y-107310000D01*
%TO.C,SW1*%
X122750000Y-100500000D02*
X122750000Y-105000000D01*
X125250000Y-106250000D02*
X126750000Y-106250000D01*
X126750000Y-99250000D02*
X125250000Y-99250000D01*
X129250000Y-105000000D02*
X129250000Y-100500000D01*
%TO.C,C8*%
X136765000Y-111188748D02*
X136765000Y-111711252D01*
X138235000Y-111188748D02*
X138235000Y-111711252D01*
%TO.C,C12*%
X141140000Y-110552164D02*
X141140000Y-110767836D01*
X141860000Y-110552164D02*
X141860000Y-110767836D01*
%TO.C,C7*%
X145640000Y-110552164D02*
X145640000Y-110767836D01*
X146360000Y-110552164D02*
X146360000Y-110767836D01*
%TO.C,C2*%
X143640000Y-110552164D02*
X143640000Y-110767836D01*
X144360000Y-110552164D02*
X144360000Y-110767836D01*
%TO.C,R1*%
X131146359Y-103630000D02*
X131453641Y-103630000D01*
X131146359Y-104390000D02*
X131453641Y-104390000D01*
%TO.C,C10*%
X151188748Y-95765000D02*
X151711252Y-95765000D01*
X151188748Y-97235000D02*
X151711252Y-97235000D01*
%TO.C,FB1*%
X146940000Y-111899622D02*
X146940000Y-111100378D01*
X148060000Y-111899622D02*
X148060000Y-111100378D01*
%TO.C,U2*%
X133890000Y-93890000D02*
X134590000Y-93890000D01*
X133890000Y-94590000D02*
X133890000Y-93890000D01*
X133890000Y-108110000D02*
X133890000Y-107410000D01*
X134590000Y-108110000D02*
X133890000Y-108110000D01*
X147410000Y-93890000D02*
X148110000Y-93890000D01*
X148110000Y-93890000D02*
X148110000Y-94590000D01*
X148110000Y-107410000D02*
X148110000Y-108110000D01*
X148110000Y-108110000D02*
X147410000Y-108110000D01*
X134590000Y-108750000D02*
X134120000Y-109090000D01*
X134120000Y-108410000D01*
X134590000Y-108750000D01*
G36*
X134590000Y-108750000D02*
G01*
X134120000Y-109090000D01*
X134120000Y-108410000D01*
X134590000Y-108750000D01*
G37*
%TO.C,U1*%
X155440000Y-98940000D02*
X159560000Y-98940000D01*
X155440000Y-99035000D02*
X155440000Y-98940000D01*
X155440000Y-104060000D02*
X155440000Y-103965000D01*
X159560000Y-98940000D02*
X159560000Y-99035000D01*
X159560000Y-103965000D02*
X159560000Y-104060000D01*
X159560000Y-104060000D02*
X155440000Y-104060000D01*
X160340000Y-104300000D02*
X159860000Y-104300000D01*
X160100000Y-103970000D01*
X160340000Y-104300000D01*
G36*
X160340000Y-104300000D02*
G01*
X159860000Y-104300000D01*
X160100000Y-103970000D01*
X160340000Y-104300000D01*
G37*
%TO.C,C11*%
X135765000Y-90761252D02*
X135765000Y-90238748D01*
X137235000Y-90761252D02*
X137235000Y-90238748D01*
%TD*%
M02*
